<svg xmlns="http://www.w3.org/2000/svg" width="64" height="64" viewBox="0 0 64 64" role="img" aria-label="notification bell">
  <path
    fill="#FFFFFF"
    d="M32 58c3.2 0 5.9-2.4 6.3-5.5H25.7C26.1 55.6 28.8 58 32 58Zm20-14.5c-3.7-3.2-7-7.4-7-16.5 0-8.7-6.2-15.9-14.5-17.8V6.5c0-2-1.6-3.5-3.5-3.5s-3.5 1.6-3.5 3.5v2.7C15.2 11.1 9 18.3 9 27c0 9.1-3.3 13.3-7 16.5-.9.8-1.4 1.9-1.4 3.1 0 2.3 1.9 4.2 4.2 4.2h54.4c2.3 0 4.2-1.9 4.2-4.2 0-1.2-.5-2.3-1.4-3.1ZM55.9 46H8.1c4.1-3.9 6.1-9.4 6.1-19 0-8.2 6.1-14.9 13.9-15.8h7.8c7.8.9 13.9 7.6 13.9 15.8 0 9.6 2 15.1 6.1 19Z"
  />
</svg>
